<?xml version="1.0" encoding="utf-8"?>
<!-- Generator: Adobe Illustrator 21.0.0, SVG Export Plug-In . SVG Version: 6.00 Build 0)  -->
<svg version="1.1" id="Layer_1" xmlns="http://www.w3.org/2000/svg" xmlns:xlink="http://www.w3.org/1999/xlink" x="0px" y="0px"
	 viewBox="0 0 1000 200" style="enable-background:new 0 0 1000 200;" xml:space="preserve">
<style type="text/css">
	.st0{enable-background:new    ;}
</style>
<g class="st0">
	<path d="M44.4,111.6c2,8.3,3.9,11.6,8,15c3.3,2.6,7.3,4.2,11.6,4.2c2.3,0,4.8-0.4,6.9-1.2c4.5-1.6,7.1-3.7,11.7-9.3l5.7,4.5
		c-2,3-3.5,5.2-4.8,6.5c-6.5,7.2-17.4,11.4-29.3,11.4c-21,0-35.2-13.6-35.2-33.8c0-21.5,15.4-36.3,37.4-36.3c11,0,19.5,3.7,25,10.9
		c3.5,4.5,4.8,7.9,6.3,16.5L44.4,111.6z M43,104.8l15-3.9c4.4-1.1,6.3-3.7,6.3-8.7c0-7.5-3.4-12.2-8.8-12.2c-4.2,0-8,2.9-9.9,7.8
		S43,95.5,43,104.8z"/>
	<path d="M93.8,79.9l27.1-7.2c2.3,4.1,2.6,5.2,3.3,9.9c1.6-1.6,2.9-2.7,3.7-3.4c5-3.9,12.5-6.5,19.2-6.5c8.7,0,14.7,3.5,18.4,10.6
		c1.5-1.6,2.6-2.7,3.5-3.4c5.2-4.5,12.9-7.2,19.9-7.2c11.8,0,20.4,9,20.4,21.5v38.8l7.3,1.1v6.3h-36.6V134l7.1-1.1V97.6
		c0-8.3-4.4-13.2-11.6-13.2c-3,0-5.2,1-9.4,3.7c0.5,2.4,0.7,3.4,0.7,5.3v39.6l6.9,1.1v6.3h-36.3V134l6.9-1.1V97.1
		c0-7.8-4.2-12.8-11-12.8c-3.4,0-5.3,1-9.1,3.8v44.8l7.1,1.1v6.3H94.6V134l7.2-1.1v-3.3V94.8c0-4.6-0.4-6-1.9-7.8
		c-1.6-1.9-3-2.4-6.1-2.4V79.9z"/>
	<path d="M220.4,80.4l31.8-7.5l-0.7,5.6v54.4l6.9,1.1v6.3h-36.6V134l7.3-1.1v-3.3V95.4c0-7.1-2.3-9.5-8.8-9.9V80.4z M239.9,41.8
		c6.8,0,12.2,5.6,12.2,12.5c0,6.8-5.9,12.8-12.8,12.8c-3.5,0-6.7-1.6-9.1-4.5c-2-2.6-3.1-5.4-3.1-7.8c0-0.3,0.1-0.8,0.1-1.1
		C228.5,46.7,233.8,41.8,239.9,41.8z"/>
</g>
<g class="st0">
	<path d="M261.5,45.4l32-7.8l-0.7,5.9v89.4l6.8,1.1v6.3h-36.3V134l7.1-1.1v-3.8V60.4c0-7.1-2.2-9.5-8.8-10.1V45.4z"/>
</g>
<g class="st0">
	<path d="M301.1,81.1l28-8.4l20.1,46c5.4-10.6,6.9-14.2,10.9-25.2c-6.4-1.9-8.3-4.2-8.3-10.9c0-5.9,3.8-9.9,9.4-9.9
		c5.6,0,9.4,4.2,9.4,10.3c0,4.9-1.8,10.2-7.9,23.3c-12,25.3-17.4,35.1-26.8,46.8c-6.9,8.6-14.2,12.9-21.5,12.9
		c-5.9,0-10.1-3.8-10.1-9.3c0-5.2,4.1-9.1,9.7-9.1c6,0,7.9,1.2,10.6,6.4c5.7-5,6.9-6.5,10.8-13.6l-22.2-47.6c-2.4-5.3-5-7.3-8.4-7.3
		c-0.5,0-1.5,0-2.4,0.1L301.1,81.1z"/>
	<path d="M462.6,60.4c0-7.1-2.2-9.5-8.8-10.1v-4.9l32-7.8l-1,5.9v79.9c0,7.6,1.5,9.8,7.5,10.8v4.8c-9.8,0.1-12.5,0.7-25,3.9
		c-3-3.7-3.4-4.8-4.5-9.8c-9.4,7.6-14.3,9.7-22.9,9.7c-15.8,0-25.6-11.6-25.6-30.3c0-23,15.2-39.7,35.7-39.7c5.7,0,7.8,0.5,12.7,3.1
		V60.4z M462.6,83.8c-3.5-3.5-5.6-4.6-8.7-4.6c-9.4,0-15.9,11.4-15.9,27.8c0,15.7,5.2,23.8,15.1,23.8c4.1,0,5.9-0.8,9.5-4.2V83.8z"
		/>
	<path d="M524.1,111.6c2,8.3,3.9,11.6,8,15c3.3,2.6,7.3,4.2,11.6,4.2c2.3,0,4.8-0.4,6.9-1.2c4.5-1.6,7.1-3.7,11.7-9.3l5.7,4.5
		c-2,3-3.5,5.2-4.8,6.5c-6.5,7.2-17.4,11.4-29.3,11.4c-21,0-35.2-13.6-35.2-33.8c0-21.5,15.4-36.3,37.4-36.3c11,0,19.5,3.7,25,10.9
		c3.5,4.5,4.8,7.9,6.3,16.5L524.1,111.6z M522.8,104.8l15-3.9c4.4-1.1,6.3-3.7,6.3-8.7c0-7.5-3.4-12.2-8.8-12.2
		c-4.2,0-8,2.9-9.9,7.8C523.3,92.5,522.8,95.5,522.8,104.8z"/>
	<path d="M571.6,45.4l32-7.8l-0.7,5.9v89.4l6.8,1.1v6.3h-36.3V134l7.1-1.1v-3.8V60.4c0-7.1-2.2-9.5-8.8-10.1V45.4z"/>
</g>
<g class="st0">
	<path d="M680.3,137c6.4,0,10.5-3.3,10.5-8c0-4.4-2.5-6.7-10.5-10.2l-9.4-4.1l-7.8-3.3c-5.2-2.2-8.7-7.9-8.7-13.9
		c0-13.3,16.5-24.9,35.2-24.9c9.7,0,15.4,3.7,15.4,9.4c0,3.9-3.5,6.7-8.6,6.7c-5.6,0-8.7-2.9-11.2-10.1c-7.1,0.5-11.3,3.9-11.3,9.1
		c0,3.5,2.4,5.9,8.7,8.3l9.9,3.9c3.3,1.2,6,2.4,8.4,3.8c5.9,3.3,9.1,9.1,9.1,16.2c0,14-12.2,22.7-31.2,22.7
		c-16.3,0-27.6-6-27.6-14.7c0-4.5,3.3-7.6,8-7.6c5.9,0,10.6,4.9,10.6,10.9c0,0.7,0,1.8-0.1,2.9C674.2,136.5,676.5,137,680.3,137z"/>
	<path d="M743.2,111.6c2,8.3,3.9,11.6,8,15c3.3,2.6,7.3,4.2,11.6,4.2c2.3,0,4.8-0.4,6.9-1.2c4.5-1.6,7.1-3.7,11.7-9.3l5.7,4.5
		c-2,3-3.5,5.2-4.8,6.5c-6.5,7.2-17.4,11.4-29.3,11.4c-21,0-35.2-13.6-35.2-33.8c0-21.5,15.4-36.3,37.4-36.3c11,0,19.5,3.7,25,10.9
		c3.5,4.5,4.8,7.9,6.3,16.5L743.2,111.6z M741.8,104.8l15-3.9c4.4-1.1,6.3-3.7,6.3-8.7c0-7.5-3.4-12.2-8.8-12.2
		c-4.2,0-8,2.9-9.9,7.8S741.8,95.5,741.8,104.8z"/>
	<path d="M821.3,137c6.4,0,10.5-3.3,10.5-8c0-4.4-2.4-6.7-10.5-10.2l-9.4-4.1l-7.8-3.3c-5.2-2.2-8.7-7.9-8.7-13.9
		c0-13.3,16.5-24.9,35.2-24.9c9.7,0,15.4,3.7,15.4,9.4c0,3.9-3.5,6.7-8.6,6.7c-5.6,0-8.7-2.9-11.2-10.1c-7.1,0.5-11.3,3.9-11.3,9.1
		c0,3.5,2.5,5.9,8.7,8.3l9.9,3.9c3.3,1.2,6,2.4,8.4,3.8c5.9,3.3,9.1,9.1,9.1,16.2c0,14-12.2,22.7-31.2,22.7
		c-16.3,0-27.6-6-27.6-14.7c0-4.5,3.3-7.6,8-7.6c5.9,0,10.6,4.9,10.6,10.9c0,0.7,0,1.8-0.1,2.9C815.2,136.5,817.5,137,821.3,137z"/>
</g>
<g class="st0">
	<path d="M853.7,82.2v-6.7h11.7v-20l22.3-6.7v26.7h16.2v6.7h-16.2V121c0,7.9,2.6,11.4,8.3,11.4c2.6,0,4.2-0.8,8-3.1l2.7,6
		c-8.3,5.9-13.1,7.5-21.5,7.5c-4.4,0-8.3-0.7-11.8-2.3c-6-2.9-8-6.9-8-16.1V82.2H853.7z"/>
</g>
<g class="st0">
	<path d="M945.7,72.6c23.4,0,38.1,13.5,38.1,35.1c0,21.5-14.7,35-38.1,35c-23.4,0-38.1-13.5-38.1-35
		C907.6,86.1,922.3,72.6,945.7,72.6z M931.3,107.8c0,18.1,5.3,28.9,14.4,28.9c9.1,0,14.4-10.8,14.4-28.9c0-18.2-5.3-29-14.4-29
		C936.6,78.8,931.3,89.5,931.3,107.8z"/>
</g>
</svg>
