<svg id="Layer_1" data-name="Layer 1" xmlns="http://www.w3.org/2000/svg" viewBox="0 0 490.24 490.23"><title>ig</title><path d="M5.33,250.11q0-52.54,0-105.08C5.35,80.94,46.86,26.58,108.7,9.69a127.42,127.42,0,0,1,33.56-4.58c72,0,144-.24,216,0,63.45.25,119.3,45.34,133.56,107.15a142.58,142.58,0,0,1,3.66,32.16c0,71.08.15,142.15-.06,213.23-.2,66.07-48.75,123.62-113.79,135.1a149.94,149.94,0,0,1-25.56,2.31q-106.46.27-212.92.09c-65.79,0-124-48.79-135.34-113.54a161.48,161.48,0,0,1-2.36-26.47C5.17,320.17,5.33,285.14,5.33,250.11ZM250.58,52.21c-35.23,0-70.47-.06-105.7.06a97.71,97.71,0,0,0-16.75,1.38,91.72,91.72,0,0,0-75.65,90.28q-.09,106.31,0,212.63A87.3,87.3,0,0,0,54,372.69c8.46,44.42,45.88,75.35,91.14,75.38q105.4.08,210.79,0A96.29,96.29,0,0,0,370.21,447a91.57,91.57,0,0,0,78.09-90.61q.15-106-.07-212a91.16,91.16,0,0,0-2.18-20c-9.9-43.2-46.42-72.08-90.7-72.09Z" transform="translate(-5.28 -5)"/><path d="M122.62,250.11c.13-70.55,57.56-127.92,127.86-127.74A127.78,127.78,0,0,1,378.06,250.62C377.91,321.1,320.55,378,249.82,377.81,179.67,377.62,122.5,320.23,122.62,250.11Zm47.1.14a80.61,80.61,0,1,0,161.22-.39c-.11-44.29-36.38-80.47-80.6-80.39C205.94,169.56,169.6,206,169.73,250.25Z" transform="translate(-5.28 -5)"/><path d="M380.83,91.44a29.26,29.26,0,1,1-29.28,29.12A29.29,29.29,0,0,1,380.83,91.44Z" transform="translate(-5.28 -5)"/></svg>